<?xml version="1.0" encoding="UTF-8" standalone="no"?>
<!-- Created with Inkscape (http://www.inkscape.org/) -->

<svg
   width="8.5in"
   height="11in"
   viewBox="0 0 215.9 279.4"
   version="1.1"
   id="svg5"
   inkscape:version="1.1 (c4e8f9e, 2021-05-24)"
   sodipodi:docname="logo.svg"
   xmlns:inkscape="http://www.inkscape.org/namespaces/inkscape"
   xmlns:sodipodi="http://sodipodi.sourceforge.net/DTD/sodipodi-0.dtd"
   xmlns="http://www.w3.org/2000/svg"
   xmlns:svg="http://www.w3.org/2000/svg">
  <sodipodi:namedview
     id="namedview7"
     pagecolor="#505050"
     bordercolor="#eeeeee"
     borderopacity="1"
     inkscape:pageshadow="0"
     inkscape:pageopacity="0"
     inkscape:pagecheckerboard="0"
     inkscape:document-units="in"
     showgrid="false"
     inkscape:zoom="1"
     inkscape:cx="476"
     inkscape:cy="528"
     inkscape:window-width="1625"
     inkscape:window-height="1360"
     inkscape:window-x="935"
     inkscape:window-y="25"
     inkscape:window-maximized="0"
     inkscape:current-layer="layer1"
     showguides="true" />
  <defs
     id="defs2">
    <rect
       x="-284.25693"
       y="178.19091"
       width="199.40411"
       height="197.9899"
       id="rect2835" />
    <rect
       x="346.48232"
       y="821.65808"
       width="219.2031"
       height="118.79394"
       id="rect2624" />
    <rect
       x="346.48232"
       y="821.65808"
       width="219.2031"
       height="118.79394"
       id="rect2624-3" />
  </defs>
  <g
     inkscape:label="Layer 1"
     inkscape:groupmode="layer"
     id="layer1">
    <path
       id="path8651"
       style="color:#000000;fill:#e9afaf;stroke-width:0.264583;stroke-linecap:round;-inkscape-stroke:none"
       d="m 147.61373,137.6071 c -0.35084,5e-5 -0.68729,0.13947 -0.93535,0.38758 l -14.83578,16.70647 c -0.5165,0.51661 16.70647,-14.83579 16.70647,-14.83579 0.5165,-0.5166 0.5165,-1.35408 0,-1.87068 -0.24805,-0.24811 -0.5845,-0.38753 -0.93534,-0.38758 z m 0.35346,-5.52989 c -0.35101,-9e-5 -0.68768,0.13934 -0.93586,0.38757 l -22.08418,23.95513 c -0.5165,0.51661 23.95539,-22.08444 23.95539,-22.08444 0.5165,-0.51661 0.5165,-1.35408 0,-1.87069 -0.24806,-0.24811 -0.58451,-0.38752 -0.93535,-0.38757 z m -0.92035,-4.25659 c -0.35084,5e-5 -0.68729,0.13947 -0.93535,0.38757 L 119.12038,157.07 c -0.5165,0.51661 28.8618,-26.99112 28.8618,-26.99112 0.5165,-0.51661 0.5165,-1.35408 0,-1.87069 -0.24805,-0.2481 -0.58451,-0.38752 -0.93534,-0.38757 z m -1.88516,-3.29127 c -0.35077,-9e-5 -0.6872,0.13914 -0.93534,0.38705 l -30.41727,32.28821 c -0.51684,0.51667 32.28795,-30.417 32.28795,-30.417 0.51685,-0.51667 0.51685,-1.35454 0,-1.87121 -0.24814,-0.24791 -0.58458,-0.38714 -0.93534,-0.38705 z m -2.53163,-2.64532 c -0.35084,5e-5 -0.68729,0.13947 -0.93534,0.38758 l -33.06258,34.93326 c -0.5165,0.51661 34.93326,-33.06258 34.93326,-33.06258 0.5165,-0.5166 0.5165,-1.35408 0,-1.87068 -0.24805,-0.24811 -0.5845,-0.38753 -0.93534,-0.38758 z m 6.54585,-11.72228 c -0.35101,-9e-5 -0.68767,0.13934 -0.93586,0.38757 l -6.7895,8.66046 c -0.5165,0.51661 8.66071,-6.78977 8.66071,-6.78977 0.5165,-0.51661 0.5165,-1.35408 0,-1.87069 -0.24806,-0.2481 -0.58451,-0.38752 -0.93535,-0.38757 z m -9.69088,9.69088 c -0.35076,-8e-5 -0.6872,0.13914 -0.93534,0.38706 l -15.04275,16.91369 c -0.5165,0.51661 16.91344,-15.04249 16.91344,-15.04249 0.51684,-0.51667 0.51684,-1.35453 0,-1.8712 -0.24814,-0.24792 -0.58458,-0.38714 -0.93535,-0.38706 z m -18.08003,18.08003 c -0.35076,-8e-5 -0.6872,0.13914 -0.93534,0.38706 l -17.01395,18.88515 c -0.5165,0.51661 18.88463,-17.01395 18.88463,-17.01395 0.51685,-0.51666 0.51685,-1.35453 0,-1.8712 -0.24814,-0.24792 -0.58457,-0.38714 -0.93534,-0.38706 z m 29.70206,-34.879 c -0.35084,5e-5 -0.68729,0.13946 -0.93534,0.38757 l -26.46247,28.33315 c -0.5165,0.51661 28.33316,-26.46246 28.33316,-26.46246 0.5165,-0.51661 0.5165,-1.35408 0,-1.87069 -0.24806,-0.24811 -0.58451,-0.38752 -0.93535,-0.38757 z m -36.09237,36.09237 c -0.35083,5e-5 -0.68728,0.13946 -0.93534,0.38757 l -15.800328,17.67127 c -0.516498,0.51661 17.671018,-15.80058 17.671018,-15.80058 0.5165,-0.51661 0.5165,-1.35408 0,-1.87069 -0.24806,-0.24811 -0.58451,-0.38752 -0.93535,-0.38757 z m 35.76991,-40.94634 c -0.35084,5.3e-5 -0.68729,0.139465 -0.93534,0.387572 l -29.15688,31.027568 c -0.51649,0.5166 31.02757,-29.15688 31.02757,-29.15688 0.5165,-0.516608 0.5165,-1.354081 0,-1.870688 -0.24806,-0.248107 -0.58451,-0.387519 -0.93535,-0.387572 z m -40.94582,40.94634 c -0.35094,-2.3e-4 -0.68759,0.13901 -0.93586,0.38705 l -15.800325,17.67153 c -0.516842,0.51667 17.671535,-15.80032 17.671535,-15.80032 0.51684,-0.51667 0.51684,-1.35454 0,-1.87121 -0.24814,-0.24791 -0.58458,-0.38714 -0.93535,-0.38705 z m 39.55831,-44.735258 c -0.35077,-8.4e-5 -0.6872,0.139139 -0.93534,0.387059 l -32.64245,34.513649 c -0.5165,0.51661 34.51313,-32.642447 34.51313,-32.642447 0.51685,-0.516667 0.51685,-1.354534 0,-1.871202 -0.24813,-0.24792 -0.58457,-0.387143 -0.93534,-0.387059 z m -44.73525,44.735258 c -0.35084,5e-5 -0.68729,0.13946 -0.93535,0.38757 l -15.800833,17.67127 c -0.51635,0.51676 17.671533,-15.80058 17.671533,-15.80058 0.5165,-0.51661 0.5165,-1.35408 0,-1.87069 -0.24805,-0.24811 -0.5845,-0.38752 -0.93534,-0.38757 z m 42.52712,-47.704068 c -0.35084,5.3e-5 -0.68729,0.139467 -0.93535,0.387575 l -35.61074,37.481693 c -0.51684,0.51666 37.48143,-35.611007 37.48143,-35.611007 0.5165,-0.516607 0.5165,-1.354079 0,-1.870686 -0.24805,-0.248108 -0.58451,-0.387522 -0.93534,-0.387575 z m -46.13517,46.135688 c -0.35077,-9e-5 -0.68721,0.13914 -0.93534,0.38705 l -17.368972,19.23991 c -0.516839,0.51667 19.239652,-17.3687 19.239652,-17.3687 0.51684,-0.51667 0.51684,-1.35454 0,-1.87121 -0.24814,-0.24791 -0.58458,-0.38714 -0.93534,-0.38705 z m 43.27229,-48.449758 c -0.35084,5.3e-5 -0.68729,0.139468 -0.93534,0.387573 l -17.30747,19.178675 c -0.5165,0.51661 19.17816,-17.307471 19.17816,-17.307471 0.51684,-0.516667 0.51684,-1.354537 0,-1.871204 -0.24806,-0.248108 -0.58451,-0.38752 -0.93535,-0.387573 z m -22.67096,22.671488 c -0.35084,5e-5 -0.68729,0.13946 -0.93535,0.38757 l -15.25385,17.12453 c -0.5165,0.51661 17.12454,-15.25385 17.12454,-15.25385 0.5165,-0.5166 0.5165,-1.35407 0,-1.87068 -0.24806,-0.24811 -0.58451,-0.38752 -0.93534,-0.38757 z m -19.30735,19.30734 c -0.35077,-8e-5 -0.68721,0.13914 -0.93535,0.38706 l -23.839885,25.71109 c -0.516498,0.51661 25.711095,-23.83989 25.711095,-23.83989 0.51684,-0.51666 0.51684,-1.35453 0,-1.8712 -0.24827,-0.24804 -0.58492,-0.38728 -0.93586,-0.38706 z m 38.58162,-43.758563 c -0.35084,5.3e-5 -0.68729,0.139467 -0.93534,0.387572 l -14.88979,16.760731 c -0.5165,0.51661 16.76099,-14.890045 16.76099,-14.890045 0.5165,-0.516607 0.5165,-1.354079 0,-1.870686 -0.24818,-0.248235 -0.58484,-0.387657 -0.93586,-0.387572 z m -24.81709,24.817093 c -0.35084,5e-5 -0.68729,0.13946 -0.93534,0.38757 l -40.949181,42.82012 c -0.516499,0.51661 42.820381,-40.94943 42.820381,-40.94943 0.5165,-0.51661 0.5165,-1.35408 0,-1.87069 -0.24818,-0.24824 -0.58484,-0.38766 -0.93586,-0.38757 z m 20.90467,-26.0811 c -0.35084,5.3e-5 -0.68729,0.139467 -0.93535,0.387575 l -14.67507,16.545755 c -0.5165,0.51661 16.54576,-14.675069 16.54576,-14.675069 0.5165,-0.516607 0.5165,-1.35408 0,-1.870686 -0.24805,-0.248108 -0.5845,-0.387522 -0.93534,-0.387575 z m -26.0811,26.0811 c -0.35084,5e-5 -0.68729,0.13946 -0.93534,0.38757 l -34.479291,36.34997 c -0.516842,0.51667 36.349981,-34.47928 36.349981,-34.47928 0.51649,-0.51661 0.51649,-1.35408 0,-1.87069 -0.24806,-0.24811 -0.58451,-0.38752 -0.93535,-0.38757 z m 21.70255,-26.879502 c -0.35084,5.3e-5 -0.68728,0.139467 -0.93534,0.387575 l -15.39544,17.266387 c -0.51684,0.51667 17.26613,-15.395185 17.26613,-15.395185 0.51684,-0.516667 0.51684,-1.354534 0,-1.871202 -0.24806,-0.248108 -0.58451,-0.387522 -0.93535,-0.387575 z m -26.43197,26.432492 c -0.35084,6e-5 -0.68729,0.13947 -0.93535,0.38758 l -28.455109,30.32579 c -0.516496,0.51661 30.325799,-28.45511 30.325799,-28.45511 0.5165,-0.5166 0.5165,-1.35408 0,-1.87068 -0.24806,-0.24811 -0.58451,-0.38752 -0.93534,-0.38758 z m 21.62193,-26.798876 c -0.35084,5.3e-5 -0.68729,0.139464 -0.93534,0.387572 l -15.76157,17.632514 c -0.5165,0.51661 17.63226,-15.761828 17.63226,-15.761828 0.51649,-0.516607 0.51649,-1.354079 0,-1.870686 -0.24806,-0.248108 -0.58451,-0.387519 -0.93535,-0.387572 z m -20.31245,20.312456 c -0.35084,5e-5 -0.68729,0.13946 -0.93535,0.38757 l -28.47061,30.34156 c -0.516842,0.51667 30.34182,-28.47087 30.34182,-28.47087 0.51649,-0.51661 0.51649,-1.35408 0,-1.87069 -0.24819,-0.24823 -0.58485,-0.38766 -0.93586,-0.38757 z M 122.6907,84.880605 c -0.35102,-8.5e-5 -0.68768,0.13934 -0.93586,0.387575 l -42.350388,44.22159 c -0.516495,0.51661 44.221598,-42.350904 44.221598,-42.350904 0.51649,-0.516607 0.51649,-1.354079 0,-1.870686 -0.24806,-0.248108 -0.58451,-0.387522 -0.93535,-0.387575 z m -5.17695,0 c -0.35083,5.3e-5 -0.68728,0.139467 -0.93534,0.387575 l -35.879719,37.75066 c -0.516498,0.51661 37.750929,-35.879974 37.750929,-35.879974 0.51649,-0.516607 0.51649,-1.354079 0,-1.870686 -0.24819,-0.248235 -0.58485,-0.38766 -0.93587,-0.387575 z m -5.17642,0 c -0.35084,5.3e-5 -0.68729,0.139467 -0.93535,0.387575 l -29.409828,31.28078 c -0.516499,0.51661 31.280518,-29.410094 31.280518,-29.410094 0.5165,-0.516607 0.5165,-1.354079 0,-1.870686 -0.24805,-0.248108 -0.5845,-0.387522 -0.93534,-0.387575 z m -5.17643,0 c -0.35084,5.3e-5 -0.68729,0.139467 -0.93534,0.387575 l -22.939173,24.80985 c -0.516495,0.51661 24.809853,-22.939164 24.809853,-22.939164 0.5165,-0.516607 0.5165,-1.354079 0,-1.870686 -0.24805,-0.248108 -0.5845,-0.387522 -0.93534,-0.387575 z m -5.17695,0 c -0.35083,5.3e-5 -0.68729,0.139467 -0.93534,0.387575 l -16.467987,18.33893 c -0.516496,0.51661 18.338677,-16.468244 18.338677,-16.468244 0.5165,-0.516607 0.5165,-1.354079 0,-1.870686 -0.24806,-0.248108 -0.58451,-0.387522 -0.93535,-0.387575 z m -5.176423,0 c -0.35084,5.3e-5 -0.68729,0.139467 -0.935345,0.387575 l -9.99732,11.868007 c -0.516499,0.516609 11.868007,-9.997321 11.868007,-9.997321 0.516498,-0.516607 0.516498,-1.354079 0,-1.870686 -0.248053,-0.248108 -0.584505,-0.387522 -0.935342,-0.387575 z m -5.176946,0 c -0.350838,5.3e-5 -0.68729,0.139467 -0.935342,0.387575 l -3.526142,5.397085 c -0.516498,0.516609 5.397344,-3.526399 5.397344,-3.526399 0.516499,-0.516607 0.516499,-1.354079 0,-1.870686 -0.248182,-0.248235 -0.584843,-0.38766 -0.93586,-0.387575 z" />
    <path
       id="path50642"
       style="color:#000000;opacity:1;fill:#e9afaf;stroke-width:0.264583;stroke-linecap:round;-inkscape-stroke:none"
       d="m 73.656488,136.9906 c -0.35084,5e-5 -0.687289,0.13947 -0.935344,0.38757 l -14.238409,16.10936 c -0.516842,0.51666 16.109095,-14.23867 16.109095,-14.23867 0.516499,-0.51661 0.516499,-1.35408 0,-1.87069 -0.248055,-0.2481 -0.584504,-0.38752 -0.935342,-0.38757 z m 1.05885,-6.23528 c -0.351018,-8e-5 -0.687679,0.13934 -0.935861,0.38757 l -22.603271,24.47448 c -0.516496,0.51661 24.474476,-22.60379 24.474476,-22.60379 0.516499,-0.51661 0.516499,-1.35408 0,-1.87069 -0.248055,-0.2481 -0.584504,-0.38751 -0.935344,-0.38757 z m -0.337447,-4.83949 c -0.35084,5e-5 -0.68729,0.13946 -0.935345,0.38757 l -28.278634,30.14958 c -0.516499,0.51661 30.149839,-28.2789 30.149839,-28.2789 0.516499,-0.5166 0.516499,-1.35407 0,-1.87068 -0.248182,-0.24824 -0.584843,-0.38766 -0.93586,-0.38757 z m -1.372526,-3.80391 c -0.350766,-8e-5 -0.687205,0.13914 -0.935345,0.38706 l -32.285108,34.15631 c -0.516843,0.51667 34.156313,-32.28511 34.156313,-32.28511 0.516842,-0.51666 0.516842,-1.35453 0,-1.8712 -0.248266,-0.24805 -0.584917,-0.38728 -0.93586,-0.38706 z m -2.230872,-2.94607 c -0.35084,5e-5 -0.687289,0.13946 -0.935344,0.38757 l -35.064784,36.93599 c -0.516843,0.51667 36.93547,-35.06478 36.93547,-35.06478 0.516842,-0.51667 0.516842,-1.35454 0,-1.87121 -0.248055,-0.2481 -0.584504,-0.38752 -0.935342,-0.38757 z m -2.782776,-2.39365 c -0.35084,5e-5 -0.68729,0.13946 -0.935344,0.38757 l -15.631602,17.50229 c -0.516501,0.51661 17.50229,-15.6316 17.50229,-15.6316 0.516499,-0.51661 0.516499,-1.35408 0,-1.87069 -0.248054,-0.24811 -0.584504,-0.38752 -0.935344,-0.38757 z m -20.267496,20.26749 c -0.35084,6e-5 -0.687289,0.13947 -0.935344,0.38758 l -16.739031,18.60997 c -0.51684,0.51667 18.609717,-16.73929 18.609717,-16.73929 0.516498,-0.5166 0.516498,-1.35408 0,-1.87068 -0.248052,-0.24811 -0.584504,-0.38752 -0.935342,-0.38758 z m 16.993277,-22.1697 c -0.35084,5e-5 -0.687289,0.13946 -0.935344,0.38757 L 48.88022,132.03018 c -0.516498,0.51661 16.772623,-14.90193 16.772623,-14.90193 0.516498,-0.51661 0.516498,-1.35408 0,-1.87069 -0.248055,-0.24811 -0.584505,-0.38752 -0.935345,-0.38757 z m -22.759333,22.75933 c -0.350841,5e-5 -0.68729,0.13947 -0.935345,0.38757 l -15.430066,17.30076 c -0.516495,0.51661 17.300755,-15.43007 17.300755,-15.43007 0.516498,-0.51661 0.516498,-1.35408 0,-1.87069 -0.248055,-0.2481 -0.584504,-0.38752 -0.935344,-0.38757 z m 31.5743,-36.75124 c -0.35084,5e-5 -0.68729,0.13946 -0.935344,0.38757 l -3.367239,5.23818 c -0.516839,0.51667 5.237925,-3.36697 5.237925,-3.36697 0.516842,-0.51667 0.516842,-1.35454 0,-1.87121 -0.248055,-0.2481 -0.584504,-0.38752 -0.935342,-0.38757 z m -12.556339,12.55634 c -0.35084,5e-5 -0.68729,0.13946 -0.935344,0.38757 l -14.996761,16.8677 c -0.516496,0.51661 16.867963,-14.99701 16.867963,-14.99701 0.516498,-0.51661 0.516498,-1.35408 0,-1.87069 -0.248179,-0.24823 -0.584841,-0.38766 -0.935858,-0.38757 z m -23.891049,23.89156 c -0.350766,-8e-5 -0.687205,0.13914 -0.935345,0.38706 L 21.402313,154.3314 c -0.516843,0.51667 16.618108,-14.74716 16.618108,-14.74716 0.516843,-0.51667 0.516843,-1.35453 0,-1.8712 -0.248139,-0.24792 -0.584578,-0.38714 -0.935344,-0.38706 z M 78.58952,90.644593 c -0.35084,5.3e-5 -0.687289,0.139467 -0.935344,0.387575 L 65.69625,104.86078 c -0.516498,0.51661 13.828612,-11.957926 13.828612,-11.957926 0.516842,-0.516667 0.516842,-1.354537 0,-1.871204 -0.248139,-0.247918 -0.584578,-0.387141 -0.935342,-0.387057 z M 57.009442,112.22467 c -0.35084,5e-5 -0.687289,0.13947 -0.935344,0.38758 L 40.964427,129.5926 c -0.516499,0.51661 16.980357,-15.10967 16.980357,-15.10967 0.516499,-0.51661 0.516499,-1.35408 0,-1.87068 -0.248052,-0.24811 -0.584504,-0.38753 -0.935342,-0.38758 z m -24.353035,24.35304 c -0.35084,5e-5 -0.68729,0.13946 -0.935344,0.38757 l -14.255978,16.12666 c -0.516496,0.51661 16.126666,-14.25597 16.126666,-14.25597 0.516499,-0.51661 0.516499,-1.35408 0,-1.87069 -0.248054,-0.24811 -0.584504,-0.38752 -0.935344,-0.38757 z M 76.330743,87.726943 c -0.351017,-8.5e-5 -0.687678,0.139338 -0.93586,0.387572 L 61.772974,103.60763 c -0.516496,0.51661 15.493111,-13.622429 15.493111,-13.622429 0.516498,-0.516606 0.516498,-1.354079 0,-1.870686 C 77.01803,87.86641 76.681581,87.726996 76.330743,87.726943 Z M 52.904265,111.15342 c -0.350837,5e-5 -0.687289,0.13946 -0.935341,0.38757 l -15.059546,16.92998 c -0.516843,0.51666 16.930232,-15.05929 16.930232,-15.05929 0.516498,-0.51661 0.516498,-1.35408 0,-1.87069 -0.248055,-0.24811 -0.584504,-0.38752 -0.935345,-0.38757 z m -24.319444,24.31944 c -0.350766,-8e-5 -0.687205,0.13914 -0.935344,0.38706 l -13.86582,15.73677 c -0.516842,0.51666 15.736506,-13.86556 15.736506,-13.86556 0.516843,-0.51667 0.516843,-1.35454 0,-1.87121 -0.248139,-0.24792 -0.584578,-0.38714 -0.935342,-0.38706 z M 72.618824,86.261916 c -0.351017,-8.5e-5 -0.687678,0.139338 -0.93586,0.387572 l -14.23117,16.102632 c -0.516845,0.51667 16.102375,-14.231427 16.102375,-14.231427 0.516842,-0.516668 0.516842,-1.354537 0,-1.871205 -0.248055,-0.248107 -0.584504,-0.387519 -0.935345,-0.387572 z M 48.770151,110.11059 c -0.350838,5e-5 -0.687287,0.13947 -0.935342,0.38757 l -14.868861,16.7398 c -0.516842,0.51667 16.739547,-14.86859 16.739547,-14.86859 0.516843,-0.51667 0.516843,-1.35454 0,-1.87121 -0.248055,-0.24811 -0.584504,-0.38752 -0.935344,-0.38757 z m -23.965979,23.96598 c -0.350838,5e-5 -0.687287,0.13947 -0.935342,0.38757 l -13.480571,15.35152 c -0.5164984,0.51661 15.351773,-13.48083 15.351773,-13.48083 0.516498,-0.51661 0.516498,-1.35408 0,-1.87069 -0.248182,-0.24823 -0.584843,-0.38766 -0.93586,-0.38757 z M 68.582897,85.121416 c -0.35084,5.3e-5 -0.68729,0.139468 -0.935345,0.387575 l -15.00787,16.878559 c -0.516496,0.5166 16.878556,-15.007873 16.878556,-15.007873 0.516499,-0.516606 0.516499,-1.354079 0,-1.870686 -0.248052,-0.248107 -0.584504,-0.387522 -0.935341,-0.387575 z M 44.85101,108.8533 c -0.350837,5e-5 -0.687289,0.13947 -0.935341,0.38757 l -14.705563,16.57625 c -0.516499,0.51661 16.576249,-14.70556 16.576249,-14.70556 0.516498,-0.51661 0.516498,-1.35408 0,-1.87069 -0.248055,-0.2481 -0.584505,-0.38752 -0.935345,-0.38757 z m -23.572202,23.5722 c -0.35084,6e-5 -0.68729,0.13947 -0.935345,0.38758 l -4.934582,6.80527 c -0.516498,0.5166 6.805269,-4.93458 6.805269,-4.93458 0.516498,-0.51661 0.516498,-1.35408 0,-1.87069 -0.248055,-0.24811 -0.584505,-0.38752 -0.935342,-0.38758 z M 64.303571,84.223796 c -0.35084,5.3e-5 -0.68729,0.139467 -0.935344,0.387575 L 46.955276,102.89527 c -0.516842,0.51666 18.284155,-16.413213 18.284155,-16.413213 0.516499,-0.516607 0.516499,-1.354079 0,-1.870686 -0.248182,-0.248235 -0.584843,-0.387659 -0.93586,-0.387575 z M 42.038781,106.4891 c -0.350767,-8e-5 -0.687205,0.13914 -0.935345,0.38706 l -15.192356,17.0633 c -0.51684,0.51667 17.063042,-15.1921 17.063042,-15.1921 0.516843,-0.51666 0.516843,-1.35453 0,-1.8712 -0.248139,-0.24792 -0.584578,-0.38714 -0.935341,-0.38706 z M 59.71677,83.63417 c -0.35084,5.3e-5 -0.687289,0.139464 -0.935344,0.387572 L 23.066809,121.60704 c -0.516498,0.51661 37.585306,-35.714612 37.585306,-35.714612 0.516498,-0.516607 0.516498,-1.354079 0,-1.870686 C 60.40406,83.773634 60.06761,83.634223 59.71677,83.63417 Z m -4.914429,-0.262001 c -0.351017,-8.5e-5 -0.687678,0.13934 -0.93586,0.387575 L 20.742664,118.75451 c -0.516498,0.5166 34.995022,-33.12408 34.995022,-33.12408 0.516498,-0.516607 0.516498,-1.35408 0,-1.870686 -0.248055,-0.248108 -0.584505,-0.387522 -0.935345,-0.387575 z m -5.292182,0.115755 c -0.350944,-2.22e-4 -0.687594,0.139012 -0.935861,0.387056 l -29.336195,31.2074 C 18.721607,115.59899 50.4455,85.746185 50.4455,85.746185 c 0.516843,-0.516668 0.516843,-1.354537 0,-1.871205 -0.248139,-0.247917 -0.584578,-0.387141 -0.935341,-0.387056 z m -5.82962,0.652674 c -0.350838,5.3e-5 -0.687287,0.139467 -0.935342,0.387572 l -24.037811,25.9085 c -0.516498,0.51661 25.908497,-24.037811 25.908497,-24.037811 0.516498,-0.516609 0.516498,-1.354079 0,-1.870689 -0.248055,-0.248107 -0.584504,-0.387519 -0.935344,-0.387572 z m -6.95823,1.781286 c -0.35084,5.3e-5 -0.687289,0.139467 -0.935344,0.387575 l -16.40546,18.276401 c -0.516496,0.51661 18.276665,-16.405715 18.276665,-16.405715 0.516498,-0.516607 0.516498,-1.354079 0,-1.870686 -0.248182,-0.248235 -0.584843,-0.38766 -0.935861,-0.387575 z" />
    <text
       xml:space="preserve"
       transform="scale(0.26458333)"
       id="text2833"
       style="font-style:normal;font-weight:normal;font-size:40px;line-height:1.25;font-family:sans-serif;white-space:pre;shape-inside:url(#rect2835);display:inline;fill:#000000;fill-opacity:1;stroke:none" />
  </g>
</svg>
